<svg version="1.1" xmlns="http://www.w3.org/2000/svg" xmlns:xlink="http://www.w3.org/1999/xlink" width="188.62665" height="175.25108" viewBox="0,0,188.62665,175.25108"><defs><linearGradient x1="239.03558" y1="106.64021" x2="239.03558" y2="243.59138" gradientUnits="userSpaceOnUse" id="color-1"><stop offset="0" stop-color="#fdda00"/><stop offset="1" stop-color="#ba6500"/></linearGradient><linearGradient x1="239.03558" y1="106.64021" x2="239.03558" y2="243.59138" gradientUnits="userSpaceOnUse" id="color-2"><stop offset="0" stop-color="#fdda00"/><stop offset="1" stop-color="#ba6500"/></linearGradient><linearGradient x1="237.60901" y1="82.86397" x2="237.60901" y2="277.82917" gradientUnits="userSpaceOnUse" id="color-3"><stop offset="0" stop-color="#0f001f"/><stop offset="1" stop-color="#010050"/></linearGradient><radialGradient cx="275.651" cy="168.45845" r="21.95491" gradientUnits="userSpaceOnUse" id="color-4"><stop offset="0" stop-color="#ff0000"/><stop offset="1" stop-color="#5a0037"/></radialGradient><radialGradient cx="215.97263" cy="153.47941" r="16.88113" gradientUnits="userSpaceOnUse" id="color-5"><stop offset="0" stop-color="#ff0000"/><stop offset="1" stop-color="#5a004e"/></radialGradient><radialGradient cx="230.47614" cy="206.97596" r="11.4126" gradientUnits="userSpaceOnUse" id="color-6"><stop offset="0" stop-color="#ff0000"/><stop offset="1" stop-color="#650042"/></radialGradient><radialGradient cx="168.18237" cy="173.68922" r="40.18185" gradientUnits="userSpaceOnUse" id="color-7"><stop offset="0" stop-color="#7b00ff"/><stop offset="1" stop-color="#020093"/></radialGradient><radialGradient cx="239.03558" cy="117.10176" r="40.18185" gradientUnits="userSpaceOnUse" id="color-8"><stop offset="0" stop-color="#7b00ff"/><stop offset="1" stop-color="#020093"/></radialGradient><radialGradient cx="237.60901" cy="225.99696" r="40.18185" gradientUnits="userSpaceOnUse" id="color-9"><stop offset="0" stop-color="#7b00ff"/><stop offset="1" stop-color="#020093"/></radialGradient><linearGradient x1="185.53903" y1="113.77308" x2="185.53903" y2="141.82905" gradientUnits="userSpaceOnUse" id="color-10"><stop offset="0" stop-color="#e0e0e0"/><stop offset="1" stop-color="#8d8d8d"/></linearGradient><radialGradient cx="185.53903" cy="127.80107" r="23.06296" gradientUnits="userSpaceOnUse" id="color-11"><stop offset="0" stop-color="#ff5a00"/><stop offset="1" stop-color="#822700"/></radialGradient><radialGradient cx="183" cy="119.25" r="22.25" gradientUnits="userSpaceOnUse" id="color-12"><stop offset="0" stop-color="#ffffff"/><stop offset="1" stop-color="#ffffff" stop-opacity="0"/></radialGradient></defs><g transform="translate(-145.68667,-92.37446)"><g data-paper-data="{&quot;isPaintingLayer&quot;:true}" fill-rule="nonzero" stroke-linejoin="miter" stroke-miterlimit="10" stroke-dasharray="" stroke-dashoffset="0" style="mix-blend-mode: normal"><g><path d="M165.32922,243.59138c0,0 -11.88812,-73.32601 -11.88812,-97.95813c0,-20.08296 11.88812,-38.99304 11.88812,-38.99304c0,0 73.30169,-14.26575 95.5805,-14.26575c26.2154,0 51.83221,14.26575 51.83221,14.26575c0,0 15.69232,64.51509 15.69232,87.49658c0,22.66449 -15.69232,49.45459 -15.69232,49.45459c0,0 -51.69885,12.83917 -95.5805,12.83917c-43.88166,0 -51.83221,-12.83917 -51.83221,-12.83917z" fill="url(#color-1)" stroke="url(#color-2)" stroke-width="0" stroke-linecap="butt"/><path d="M170.56,184.62629c0,0 -15.65801,-5.22754 -23.83586,-33.77409c-5.21259,-18.19568 10.23382,-44.88309 23.65884,-52.21209c30.56812,-16.68778 65.79945,8.47562 65.79945,8.47562c0,0 39.26051,-21.54231 64.57472,-9.34578c14.1177,6.80199 23.4741,24.94491 28.80481,44.08818c3.7734,13.55079 -10.16267,39.915 -10.16267,39.915c0,0 19.78507,31.37032 13.77893,45.37398c-6.86973,16.01717 -24.85006,30.05922 -45.6913,39.27567c-16.18859,7.15896 -54.63316,-19.97827 -54.63316,-19.97827c0,0 -30.83305,21.61246 -54.22045,17.28036c-23.3874,-4.33211 -31.28132,-25.54424 -30.61253,-36.37181c0.98105,-15.88291 22.53922,-42.72679 22.53922,-42.72679z" fill="url(#color-3)" stroke="none" stroke-width="0" stroke-linecap="butt"/><path d="M271.37128,141.82905c0,0 8.06268,25.31758 -1.37294,36.18646c-9.43562,10.86888 -36.19353,7.08631 -36.19353,7.08631" fill="none" stroke="url(#color-4)" stroke-width="9.5" stroke-linecap="round"/><path d="M200.04254,170.36055l31.86017,-33.76227" fill="none" stroke="url(#color-5)" stroke-width="9.5" stroke-linecap="round"/><path d="M241.88873,225.04591l-20.44757,-22.8252" fill="none" stroke="url(#color-6)" stroke-width="9.5" stroke-linecap="round"/><path d="M156.29425,208.40254c0,0 0.51618,-5.26526 2.34481,-8.29197c2.53393,-4.1941 11.44541,-14.53322 11.44541,-14.53322c0,0 -8.37009,-6.41388 -11.2992,-10.17989c-2.57215,-3.30705 -6.77074,-11.21873 -6.77074,-11.21873h81.79028v40.41962z" fill="url(#color-7)" stroke="none" stroke-width="0" stroke-linecap="butt"/><path d="M224.29431,148.01088v-40.41962h80.36371v40.41962z" fill="url(#color-8)" stroke="none" stroke-width="0" stroke-linecap="butt"/><path d="M225.72089,242.64033l-2.85315,-26.15387h80.36371c0,0 0,26.8409 0,33.76227c0,3.07346 -3.8042,6.18182 -3.8042,6.18182c0,0 -35.19908,1.97381 -48.75421,-0.56231c-9.69732,-1.81434 -24.95215,-13.22791 -24.95215,-13.22791z" fill="url(#color-9)" stroke="none" stroke-width="0" stroke-linecap="butt"/><path d="M162.47607,141.82905v-28.05597h46.12592v28.05597z" fill="url(#color-10)" stroke="url(#color-11)" stroke-width="4.5" stroke-linecap="butt"/><text transform="translate(166.19287,133.74513) scale(0.47552,0.47552)" font-size="40" xml:space="preserve" fill="#000000" fill-rule="nonzero" stroke="none" stroke-width="1" stroke-linecap="butt" stroke-linejoin="miter" stroke-miterlimit="10" stroke-dasharray="" stroke-dashoffset="0" font-family="Serif" font-weight="normal" text-anchor="start" style="mix-blend-mode: normal"><tspan x="0" dy="0">1010</tspan></text><path d="M160.75,119.25c0,-12.28834 9.96166,-22.25 22.25,-22.25c12.28834,0 22.25,9.96166 22.25,22.25c0,12.28833 -9.96166,22.25 -22.25,22.25c-12.28834,0 -22.25,-9.96167 -22.25,-22.25z" fill="url(#color-12)" stroke="none" stroke-width="0" stroke-linecap="butt"/></g></g></g></svg>