<svg version="1.1" xmlns="http://www.w3.org/2000/svg" xmlns:xlink="http://www.w3.org/1999/xlink" width="458.79462" height="175.25108" viewBox="0,0,458.79462,175.25108"><defs><linearGradient x1="239.90609" y1="137.45515" x2="239.90609" y2="228.05427" gradientUnits="userSpaceOnUse" id="color-1"><stop offset="0" stop-color="#fdda00"/><stop offset="1" stop-color="#ba6500"/></linearGradient><linearGradient x1="379.94536" y1="113.78587" x2="379.94536" y2="250.73704" gradientUnits="userSpaceOnUse" id="color-2"><stop offset="0" stop-color="#fdda00"/><stop offset="1" stop-color="#ba6500"/></linearGradient><linearGradient x1="379.94536" y1="113.78587" x2="379.94536" y2="250.73704" gradientUnits="userSpaceOnUse" id="color-3"><stop offset="0" stop-color="#fdda00"/><stop offset="1" stop-color="#ba6500"/></linearGradient><radialGradient cx="321.75" cy="107" r="94.31333" gradientUnits="userSpaceOnUse" id="color-4"><stop offset="0" stop-color="#1d0056"/><stop offset="1" stop-color="#000d27"/></radialGradient><radialGradient cx="416.56078" cy="175.60411" r="21.95491" gradientUnits="userSpaceOnUse" id="color-5"><stop offset="0" stop-color="#ff0000"/><stop offset="1" stop-color="#5a0037"/></radialGradient><radialGradient cx="356.88241" cy="160.62507" r="16.88113" gradientUnits="userSpaceOnUse" id="color-6"><stop offset="0" stop-color="#ff0000"/><stop offset="1" stop-color="#5a004e"/></radialGradient><radialGradient cx="371.38592" cy="214.12162" r="11.4126" gradientUnits="userSpaceOnUse" id="color-7"><stop offset="0" stop-color="#ff0000"/><stop offset="1" stop-color="#650042"/></radialGradient><radialGradient cx="309.09215" cy="180.83488" r="40.18185" gradientUnits="userSpaceOnUse" id="color-8"><stop offset="0" stop-color="#7b00ff"/><stop offset="1" stop-color="#020093"/></radialGradient><radialGradient cx="379.94536" cy="124.24742" r="40.18185" gradientUnits="userSpaceOnUse" id="color-9"><stop offset="0" stop-color="#7b00ff"/><stop offset="1" stop-color="#020093"/></radialGradient><radialGradient cx="378.51879" cy="233.14262" r="40.18185" gradientUnits="userSpaceOnUse" id="color-10"><stop offset="0" stop-color="#7b00ff"/><stop offset="1" stop-color="#020093"/></radialGradient><linearGradient x1="326.44881" y1="120.91874" x2="326.44881" y2="148.97471" gradientUnits="userSpaceOnUse" id="color-11"><stop offset="0" stop-color="#e0e0e0"/><stop offset="1" stop-color="#8d8d8d"/></linearGradient><radialGradient cx="326.44881" cy="134.94672" r="23.06296" gradientUnits="userSpaceOnUse" id="color-12"><stop offset="0" stop-color="#ff5a00"/><stop offset="1" stop-color="#822700"/></radialGradient><radialGradient cx="324.5" cy="125.25" r="22.25" gradientUnits="userSpaceOnUse" id="color-13"><stop offset="0" stop-color="#ffffff"/><stop offset="1" stop-color="#ffffff" stop-opacity="0"/></radialGradient></defs><g transform="translate(-16.42848,-99.52011)"><g data-paper-data="{&quot;isPaintingLayer&quot;:true}" fill-rule="nonzero" stroke-linejoin="miter" stroke-miterlimit="10" stroke-dasharray="" stroke-dashoffset="0" style="mix-blend-mode: normal"><path d="M43.07709,228.05427c-3.9274,0 -7.66982,0 -10.94862,0c-7.04526,0 -7.97666,-0.17491 -10.06229,-0.62396c-2.08563,-0.44904 -1.51015,-2.26655 -1.51015,-3.82079c0,-1.72385 -0.37755,-2.23467 -0.37755,-4.61731c0,-13.59084 0,-81.53707 0,-81.53707c0,0 363.67433,0 408.11951,0c8.27524,0 23.04314,-0.10328 26.80526,0.37438c3.76211,0.47766 4.40253,2.20725 4.61785,3.61534c0.26891,1.7584 -0.08738,3.81469 -0.08738,5.36973c0,11.30069 0,81.23969 0,81.23969c0,0 -363.81256,0 -416.55662,0z" data-paper-data="{&quot;index&quot;:null}" fill="#000000" stroke="url(#color-1)" stroke-width="7.5" stroke-linecap="butt"/><text transform="translate(27.75,192.00001) scale(0.89004,0.89004)" font-size="40" xml:space="preserve" fill="#00ff21" fill-rule="nonzero" stroke="none" stroke-width="1" stroke-linecap="butt" stroke-linejoin="miter" stroke-miterlimit="10" stroke-dasharray="" stroke-dashoffset="0" font-family="Serif" font-weight="normal" text-anchor="start" style="mix-blend-mode: normal"><tspan x="0" dy="0">Algorithm Viewer</tspan></text><path d="M306.239,250.73704c0,0 -11.88812,-73.32601 -11.88812,-97.95813c0,-20.08296 11.88812,-38.99304 11.88812,-38.99304c0,0 73.30169,-14.26575 95.5805,-14.26575c26.2154,0 51.83221,14.26575 51.83221,14.26575c0,0 15.69232,64.51509 15.69232,87.49658c0,22.66449 -15.69232,49.45459 -15.69232,49.45459c0,0 -51.69885,12.83917 -95.5805,12.83917c-43.88166,0 -51.83221,-12.83917 -51.83221,-12.83917z" fill="url(#color-2)" stroke="url(#color-3)" stroke-width="0" stroke-linecap="butt"/><path d="M311.46978,191.77195c0,0 -15.65801,-5.22754 -23.83586,-33.77409c-5.21259,-18.19568 10.23382,-44.88309 23.65884,-52.21209c30.56812,-16.68778 65.79945,8.47562 65.79945,8.47562c0,0 39.26051,-21.54231 64.57472,-9.34578c14.1177,6.80199 23.4741,24.94491 28.80481,44.08818c3.7734,13.55079 -10.16267,39.915 -10.16267,39.915c0,0 19.78507,31.37032 13.77893,45.37398c-6.86973,16.01717 -24.85006,30.05922 -45.6913,39.27567c-16.18859,7.15896 -54.63316,-19.97827 -54.63316,-19.97827c0,0 -30.83305,21.61246 -54.22045,17.28036c-23.3874,-4.33211 -31.28132,-25.54424 -30.61253,-36.37181c0.98105,-15.88291 22.53922,-42.72679 22.53922,-42.72679z" fill="url(#color-4)" stroke="none" stroke-width="0" stroke-linecap="butt"/><path d="M412.28106,148.97471c0,0 8.06268,25.31758 -1.37294,36.18646c-9.43562,10.86888 -36.19353,7.08631 -36.19353,7.08631" fill="none" stroke="url(#color-5)" stroke-width="9.5" stroke-linecap="round"/><path d="M340.95232,177.50621l31.86017,-33.76227" fill="none" stroke="url(#color-6)" stroke-width="9.5" stroke-linecap="round"/><path d="M382.79851,232.19157l-20.44757,-22.8252" fill="none" stroke="url(#color-7)" stroke-width="9.5" stroke-linecap="round"/><path d="M297.20403,215.5482c0,0 0.51618,-5.26526 2.34481,-8.29197c2.53393,-4.1941 11.44541,-14.53322 11.44541,-14.53322c0,0 -8.37009,-6.41388 -11.2992,-10.17989c-2.57215,-3.30705 -6.77074,-11.21873 -6.77074,-11.21873h81.79028v40.41962z" fill="url(#color-8)" stroke="none" stroke-width="0" stroke-linecap="butt"/><path d="M365.20409,155.15654v-40.41962h80.36371v40.41962z" fill="url(#color-9)" stroke="none" stroke-width="0" stroke-linecap="butt"/><path d="M366.63067,249.78599l-2.85315,-26.15387h80.36371c0,0 0,26.8409 0,33.76227c0,3.07346 -3.8042,6.18182 -3.8042,6.18182c0,0 -35.19908,1.97381 -48.75421,-0.56231c-9.69732,-1.81434 -24.95215,-13.22791 -24.95215,-13.22791z" fill="url(#color-10)" stroke="none" stroke-width="0" stroke-linecap="butt"/><path d="M303.38585,148.97471v-28.05597h46.12592v28.05597z" fill="url(#color-11)" stroke="url(#color-12)" stroke-width="4.5" stroke-linecap="butt"/><text transform="translate(307.10265,140.89079) scale(0.47552,0.47552)" font-size="40" xml:space="preserve" fill="#000000" fill-rule="nonzero" stroke="none" stroke-width="1" stroke-linecap="butt" stroke-linejoin="miter" stroke-miterlimit="10" stroke-dasharray="" stroke-dashoffset="0" font-family="Serif" font-weight="normal" text-anchor="start" style="mix-blend-mode: normal"><tspan x="0" dy="0">1010</tspan></text><path d="M302.25,125.25c0,-12.28834 9.96166,-22.25 22.25,-22.25c12.28834,0 22.25,9.96166 22.25,22.25c0,12.28833 -9.96166,22.25 -22.25,22.25c-12.28834,0 -22.25,-9.96167 -22.25,-22.25z" fill="url(#color-13)" stroke="none" stroke-width="0" stroke-linecap="butt"/></g></g></svg>