<svg version="1.1" xmlns="http://www.w3.org/2000/svg" xmlns:xlink="http://www.w3.org/1999/xlink" width="180.5716" height="182.25059" viewBox="0,0,180.5716,182.25059"><defs><linearGradient x1="345.36461" y1="251.79589" x2="345.36461" y2="424.9291" gradientUnits="userSpaceOnUse" id="color-1"><stop offset="0" stop-color="#ffdd00"/><stop offset="1" stop-color="#b96300"/></linearGradient><radialGradient cx="389.32279" cy="243.94631" r="22.5872" gradientUnits="userSpaceOnUse" id="color-2"><stop offset="0" stop-color="#beb9a4"/><stop offset="1" stop-color="#636363"/></radialGradient><radialGradient cx="379.49961" cy="294.24149" r="87.45379" gradientUnits="userSpaceOnUse" id="color-3"><stop offset="0" stop-color="#706d60"/><stop offset="1" stop-color="#2e2e2e"/></radialGradient><radialGradient cx="365.1891" cy="281.57842" r="55.41801" gradientUnits="userSpaceOnUse" id="color-4"><stop offset="0" stop-color="#706d60"/><stop offset="1" stop-color="#2e2e2e"/></radialGradient><radialGradient cx="366.11103" cy="284.34418" r="50.72437" gradientUnits="userSpaceOnUse" id="color-5"><stop offset="0" stop-color="#706d60"/><stop offset="1" stop-color="#2e2e2e"/></radialGradient><radialGradient cx="367.95489" cy="287.72458" r="45.78367" gradientUnits="userSpaceOnUse" id="color-6"><stop offset="0" stop-color="#706d60"/><stop offset="1" stop-color="#2e2e2e"/></radialGradient><radialGradient cx="376.25223" cy="295.10001" r="37.54921" gradientUnits="userSpaceOnUse" id="color-7"><stop offset="0" stop-color="#706d60"/><stop offset="1" stop-color="#2e2e2e"/></radialGradient><radialGradient cx="379.09168" cy="313.5387" r="30.30289" gradientUnits="userSpaceOnUse" id="color-8"><stop offset="0" stop-color="#7dcdff"/><stop offset="1" stop-color="#009bff"/></radialGradient><radialGradient cx="374.31571" cy="315.35028" r="15.97488" gradientUnits="userSpaceOnUse" id="color-9"><stop offset="0" stop-color="#ffffff"/><stop offset="1" stop-color="#ffffff" stop-opacity="0"/></radialGradient></defs><g transform="translate(-256.25817,-242.67855)"><g data-paper-data="{&quot;isPaintingLayer&quot;:true}" fill-rule="nonzero" stroke="none" stroke-width="0" stroke-linecap="butt" stroke-linejoin="miter" stroke-miterlimit="10" stroke-dasharray="" stroke-dashoffset="0" style="mix-blend-mode: normal"><path d="M271.49728,415.193c0,0 -15.23911,-67.79708 -15.23911,-93.03149c0,-25.83087 15.23911,-60.20617 15.23911,-60.20617c0,0 41.06805,-10.15941 65.82448,-10.15941c26.23677,0 87.41318,10.15941 87.41318,10.15941c0,0 9.7361,70.13847 9.7361,95.7641c0,25.45241 -9.7361,57.4736 -9.7361,57.4736c0,0 -41.31265,9.7361 -67.0944,9.7361c-25.28793,0 -86.14327,-9.7361 -86.14327,-9.7361z" fill="url(#color-1)"/><path d="M351.774,263.1627l-2.13479,-13.352l44.60782,-7.13215l2.13479,13.352z" fill="url(#color-2)"/><path d="M261.34792,311.95033c-0.96952,-13.86235 1.77013,-37.75919 11.82974,-47.46068c7.82644,-7.54781 19.7634,-13.47453 31.54483,-13.78347c11.78146,-0.30897 42.65692,9.95067 42.65692,9.95067c0,0 28.54068,-9.52181 41.16423,-8.90555c25.42721,1.24132 37.59399,14.80115 43.41583,37.3256c5.82187,22.52448 -7.14923,46.22678 -7.14923,46.22678c0,0 21.86638,43.15424 6.61278,65.23926c-15.2536,22.08502 -47.89408,22.43585 -52.90299,21.15661c-11.29806,-2.88545 -30.24726,-9.97439 -30.24726,-9.97439c0,0 -14.00565,6.18564 -29.34172,7.06097c-15.3361,0.87534 -33.59758,3.68298 -43.00092,-5.12093c-8.45293,-7.91414 -13.02241,-12.29487 -15.2432,-31.14913c-2.66805,-22.65188 6.76853,-45.59443 6.76853,-45.59443c0,0 -5.13806,-11.10891 -6.10755,-24.97125z" fill="url(#color-3)"/><path d="M297.75548,334.39528c0,-30.60653 24.81148,-55.41801 55.41801,-55.41801c30.60653,0 55.41801,24.81148 55.41801,55.41801c0,30.60653 -24.81148,55.41801 -55.41801,55.41801c-30.60653,0 -55.41801,-24.81148 -55.41801,-55.41801z" fill="url(#color-4)"/><path d="M306.64871,333.65417c0,-28.0143 22.71008,-50.72437 50.72437,-50.72437c28.0143,0 50.72437,22.71008 50.72437,50.72437c0,28.0143 -22.71008,50.72437 -50.72437,50.72437c-28.0143,0 -50.72437,-22.71008 -50.72437,-50.72437z" fill="url(#color-5)"/><path d="M318.50633,332.17199c0,-25.28562 20.49805,-45.78367 45.78367,-45.78367c25.28562,0 45.78367,20.49805 45.78367,45.78367c0,25.28562 -20.49805,45.78367 -45.78367,45.78367c-25.28562,0 -45.78367,-20.49805 -45.78367,-45.78367z" fill="url(#color-6)"/><path d="M330.48621,330.94274c0,-20.73785 16.81136,-37.54921 37.54921,-37.54921c20.73785,0 37.54921,16.81136 37.54921,37.54921c0,20.73785 -16.81136,37.54921 -37.54921,37.54921c-20.73785,0 -37.54921,-16.81136 -37.54921,-37.54921z" fill="url(#color-7)"/><g><path d="M340.38966,329.20757c0,-16.73582 13.56706,-30.30289 30.30289,-30.30289c16.73582,0 30.30289,13.56706 30.30289,30.30289c0,16.73582 -13.56706,30.30289 -30.30289,30.30289c-16.73582,0 -30.30289,-13.56706 -30.30289,-30.30289z" fill="url(#color-8)"/><path d="M358.34083,315.35028c0,-8.82269 7.1522,-15.97488 15.97488,-15.97488c8.82269,0 15.97488,7.1522 15.97488,15.97488c0,8.82269 -7.1522,15.97488 -15.97488,15.97488c-8.82269,0 -15.97488,-7.1522 -15.97488,-15.97488z" fill="url(#color-9)"/></g></g></g></svg>