<svg version="1.1" xmlns="http://www.w3.org/2000/svg" xmlns:xlink="http://www.w3.org/1999/xlink" width="145.48367" height="148.94976" viewBox="0,0,145.48367,148.94976"><defs><linearGradient x1="343.7307" y1="340.05426" x2="343.7307" y2="480.90051" gradientUnits="userSpaceOnUse" id="color-1"><stop offset="0" stop-color="#ffdd00"/><stop offset="1" stop-color="#b96300"/></linearGradient><radialGradient cx="385.16668" cy="366.25098" r="71.14486" gradientUnits="userSpaceOnUse" id="color-2"><stop offset="0" stop-color="#000000"/><stop offset="1" stop-color="#000000"/></radialGradient><radialGradient cx="354.33333" cy="396.66666" r="62.16667" gradientUnits="userSpaceOnUse" id="color-3"><stop offset="0" stop-color="#2f004e"/><stop offset="1" stop-color="#2f004e" stop-opacity="0"/></radialGradient><radialGradient cx="354.33333" cy="426.33333" r="62.16666" gradientUnits="userSpaceOnUse" id="color-4"><stop offset="0" stop-color="#2f004e"/><stop offset="1" stop-color="#2f004e" stop-opacity="0"/></radialGradient><radialGradient cx="327.66667" cy="405.66667" r="62.16667" gradientUnits="userSpaceOnUse" id="color-5"><stop offset="0" stop-color="#2f004e"/><stop offset="1" stop-color="#2f004e" stop-opacity="0"/></radialGradient><linearGradient x1="333.38352" y1="380.58807" x2="356.12215" y2="380.58807" gradientUnits="userSpaceOnUse" id="color-6"><stop offset="0" stop-color="#2d2d2d"/><stop offset="1" stop-color="#565656"/></linearGradient><linearGradient x1="333.87784" y1="439.41194" x2="356.61647" y2="439.41194" gradientUnits="userSpaceOnUse" id="color-7"><stop offset="0" stop-color="#2d2d2d"/><stop offset="1" stop-color="#565656"/></linearGradient><linearGradient x1="306.02676" y1="389.37739" x2="342.02896" y2="389.37739" gradientUnits="userSpaceOnUse" id="color-8"><stop offset="0" stop-color="#2d2d2d"/><stop offset="1" stop-color="#565656"/></linearGradient><linearGradient x1="365.97215" y1="412.6215" x2="365.97215" y2="448.62369" gradientUnits="userSpaceOnUse" id="color-9"><stop offset="0" stop-color="#565656"/><stop offset="1" stop-color="#2d2d2d"/></linearGradient><linearGradient x1="301.5" y1="410.24716" x2="329.67614" y2="410.24716" gradientUnits="userSpaceOnUse" id="color-10"><stop offset="0" stop-color="#2d2d2d"/><stop offset="1" stop-color="#565656"/></linearGradient><linearGradient x1="374.41194" y1="398.38352" x2="374.41194" y2="421.12215" gradientUnits="userSpaceOnUse" id="color-11"><stop offset="0" stop-color="#565656"/><stop offset="1" stop-color="#2d2d2d"/></linearGradient><linearGradient x1="306.37631" y1="430.97214" x2="342.37848" y2="430.97214" gradientUnits="userSpaceOnUse" id="color-12"><stop offset="0" stop-color="#2d2d2d"/><stop offset="1" stop-color="#565656"/></linearGradient><linearGradient x1="365.62261" y1="371.02676" x2="365.62261" y2="407.02894" gradientUnits="userSpaceOnUse" id="color-13"><stop offset="0" stop-color="#565656"/><stop offset="1" stop-color="#2d2d2d"/></linearGradient><linearGradient x1="310.64489" y1="409.75285" x2="380.34375" y2="409.75285" gradientUnits="userSpaceOnUse" id="color-14"><stop offset="0" stop-color="#565656"/><stop offset="1" stop-color="#2d2d2d"/></linearGradient><linearGradient x1="337.33334" y1="410" x2="354" y2="410" gradientUnits="userSpaceOnUse" id="color-15"><stop offset="0" stop-color="#565656"/><stop offset="1" stop-color="#2d2d2d"/></linearGradient><radialGradient cx="391.16667" cy="360.75098" r="12.83333" gradientUnits="userSpaceOnUse" id="color-16"><stop offset="0" stop-color="#ffffff"/><stop offset="1" stop-color="#ffffff" stop-opacity="0"/></radialGradient></defs><g transform="translate(-271.24136,-339.16411)"><g data-paper-data="{&quot;isPaintingLayer&quot;:true}" fill-rule="nonzero" stroke="none" stroke-width="0" stroke-linecap="butt" stroke-linejoin="miter" stroke-miterlimit="10" stroke-dasharray="" stroke-dashoffset="0" style="mix-blend-mode: normal"><g><path d="M283.6386,472.98005c0,0 -12.39723,-55.15386 -12.39723,-75.68241c0,-21.01377 12.39723,-48.97856 12.39723,-48.97856c0,0 33.40942,-8.26481 53.54913,-8.26481c21.34398,0 71.11185,8.26481 71.11185,8.26481c0,0 7.92045,57.05861 7.92045,77.90542c0,20.70589 -7.92045,46.75556 -7.92045,46.75556c0,0 -33.60841,7.92045 -54.58222,7.92045c-20.57209,0 -70.07875,-7.92045 -70.07875,-7.92045z" fill="url(#color-1)"/><path d="M275.38196,388.99071c-0.78871,-11.27722 1.44002,-30.71764 9.62365,-38.60991c6.36692,-6.14024 16.07779,-10.96171 25.66216,-11.21305c9.58438,-0.25135 32.202,12.595 32.202,12.595c0,0 25.71824,-12.24612 35.98766,-11.74479c20.68539,1.00983 30.58323,12.04094 35.31939,30.3649c4.73617,18.32397 -6.56599,37.85612 -6.56599,37.85612c0,0 10.42079,24.86145 8.9769,39.80682c-1.21463,12.57238 -1.25993,18.12113 -20.2758,25.79944c-5.92442,2.39218 -13.42107,2.46413 -20.92336,2.70108c-5.09224,0.16084 -10.37279,1.14053 -14.44763,0.09985c-9.19112,-2.34735 -13.5944,-8.48727 -13.5944,-8.48727c0,0 -12.64378,7.0321 -25.11991,7.74419c-12.47613,0.71211 -27.33211,2.99615 -34.98185,-4.16596c-6.87658,-6.43825 -10.59392,-10.00204 -12.40054,-25.34025c-2.1705,-18.42762 5.0063,-36.09171 5.0063,-36.09171c0,0 -3.67987,-10.03725 -4.46858,-21.31447z" fill="url(#color-2)"/><path d="M354.33333,458.4472c-34.3337,0 -62.16666,-27.66009 -62.16666,-61.78054c0,-20.32958 9.88068,-38.36574 25.12996,-49.62442c0.11759,0.02329 0.2305,0.04887 0.33781,0.07736c6.11912,1.62502 12.7489,2.70465 19.15818,3.50367c1.73049,1.43306 3.95169,2.29436 6.37405,2.29436c1.72194,0 3.34223,-0.43522 4.75687,-1.20167c11.15475,0.70543 21.52843,0.05984 32.42307,-1.66555c0.34441,0.24691 0.70514,0.47248 1.08028,0.67478c2.51938,1.71615 5.52908,3.43749 6.19278,3.84627c4.86497,2.99637 12.57375,7.00759 19.32382,9.16683c2.04541,3.22075 3.79964,6.6424 5.22593,10.22843c-5.05464,0.50045 -9.00275,4.76461 -9.00275,9.9509c0,0.98028 0.14105,1.92761 0.40396,2.82281c0.54223,15.18249 -2.61433,31.67616 1.01616,46.30244c-11.30562,15.3988 -29.60378,25.40431 -50.25346,25.40431z" fill="url(#color-3)"/><path d="M416.5,426.33333c0,34.12045 -27.83296,61.78054 -62.16666,61.78054c-34.3337,0 -62.16667,-27.66009 -62.16667,-61.78054c0,-34.12045 27.83297,-61.78054 62.16667,-61.78054c34.3337,0 62.16666,27.66009 62.16666,61.78054z" fill="url(#color-4)"/><path d="M389.83333,405.66667c0,34.12045 -27.83296,61.78054 -62.16667,61.78054c-19.86192,0 -37.54831,-9.25667 -48.9293,-23.66577c3.25188,-4.97096 1.91639,-13.11276 -2.06008,-17.55199c0.52928,-1.21924 0.82271,-2.56459 0.82271,-3.97847c0,-0.12854 -0.00243,-0.25652 -0.00723,-0.38389c1.0675,-2.66063 1.9884,-5.3641 2.30602,-8.11899c1.135,-9.84448 0.86839,-19.35274 0.36788,-29.16085c-0.25968,-5.08866 0.8185,-12.42783 -0.50017,-18.18337c11.40201,-13.75089 28.67089,-22.51775 48.00017,-22.51775c34.3337,0 62.16667,27.66009 62.16667,61.78054z" fill="url(#color-5)"/><g><path d="M333.38352,394.67614v-28.17613h22.73863v28.17613z" fill="url(#color-6)"/><path d="M333.87784,453.5v-28.17613h22.73863v28.17613z" fill="url(#color-7)"/></g><g><path d="M325.9503,407.37849l-19.92354,-19.92354l16.07865,-16.07865l19.92354,19.92353z" fill="url(#color-8)"/><path d="M367.89459,448.62369l-19.92354,-19.92354l16.07865,-16.07865l19.92354,19.92354z" fill="url(#color-9)"/></g><g><path d="M329.67614,421.61648h-28.17613v-22.73865h28.17612z" fill="url(#color-10)"/><path d="M388.49999,421.12215h-28.17612v-22.73863h28.17613z" fill="url(#color-11)"/></g><g><path d="M342.37848,429.0497l-19.92353,19.92354l-16.07864,-16.07865l19.92353,-19.92353z" fill="url(#color-12)"/><path d="M383.6237,387.10541l-19.92353,19.92353l-16.07865,-16.07864l19.92353,-19.92354z" fill="url(#color-13)"/></g><path d="M310.64489,409.75285c0,-19.2468 15.60263,-34.84943 34.84943,-34.84943c19.2468,0 34.84943,15.60263 34.84943,34.84943c0,19.2468 -15.60262,34.84943 -34.84943,34.84943c-19.2468,0 -34.84943,-15.60263 -34.84943,-34.84943zM345.74149,424.82956c8.19013,0 14.82954,-6.63942 14.82954,-14.82955c0,-8.19013 -6.63941,-14.82954 -14.82954,-14.82954c-8.19013,0 -14.82954,6.63941 -14.82954,14.82954c0,8.19013 6.63941,14.82955 14.82954,14.82955z" fill="url(#color-14)"/><path d="M337.33334,410c0,-4.60237 3.73096,-8.33333 8.33333,-8.33333c4.60237,0 8.33333,3.73096 8.33333,8.33333c0,4.60237 -3.73096,8.33333 -8.33333,8.33333c-4.60237,0 -8.33333,-3.73096 -8.33333,-8.33333z" fill="url(#color-15)"/><path d="M403.83333,360.75098c0,7.08765 -5.67106,12.83333 -12.66667,12.83333c-6.99561,0 -12.66667,-5.74568 -12.66667,-12.83333c0,-7.08765 5.67106,-12.83333 12.66667,-12.83333c6.99561,0 12.66667,5.74568 12.66667,12.83333z" fill="url(#color-16)"/></g></g></g></svg>