<svg version="1.1" xmlns="http://www.w3.org/2000/svg" xmlns:xlink="http://www.w3.org/1999/xlink" width="146.18394" height="141.80097" viewBox="0,0,146.18394,141.80097"><defs><linearGradient x1="74.39736" y1="5.05424" x2="74.39736" y2="145.90049" gradientUnits="userSpaceOnUse" id="color-1"><stop offset="0" stop-color="#ffdd00"/><stop offset="1" stop-color="#b96300"/></linearGradient><radialGradient cx="123.29752" cy="23.72848" r="71.01389" gradientUnits="userSpaceOnUse" id="color-2"><stop offset="0" stop-color="#7e77ff"/><stop offset="1" stop-color="#453a9d"/></radialGradient><radialGradient cx="24.46409" cy="13.39745" r="49.45633" gradientUnits="userSpaceOnUse" id="color-3"><stop offset="0" stop-color="#89ff78"/><stop offset="1" stop-color="#3ea33c"/></radialGradient><radialGradient cx="140.86026" cy="106.721" r="52.86039" gradientUnits="userSpaceOnUse" id="color-4"><stop offset="0" stop-color="#89ff78"/><stop offset="1" stop-color="#3ea33c"/></radialGradient><radialGradient cx="118.33333" cy="28.16667" r="20.66667" gradientUnits="userSpaceOnUse" id="color-5"><stop offset="0" stop-color="#eee6ff"/><stop offset="1" stop-color="#eee6ff" stop-opacity="0"/></radialGradient></defs><g transform="translate(-1.90803,-4.09952)"><g data-paper-data="{&quot;isPaintingLayer&quot;:true}" fill-rule="nonzero" stroke="none" stroke-width="0" stroke-linecap="butt" stroke-linejoin="miter" stroke-miterlimit="10" stroke-dasharray="" stroke-dashoffset="0" style="mix-blend-mode: normal"><path d="M14.30526,137.98003c0,0 -12.39723,-55.15386 -12.39723,-75.68241c0,-21.01377 12.39723,-48.97856 12.39723,-48.97856c0,0 33.40942,-8.26481 53.54913,-8.26481c21.34398,0 71.11185,8.26481 71.11185,8.26481c0,0 7.92045,57.05861 7.92045,77.90542c0,20.70589 -7.92045,46.75556 -7.92045,46.75556c0,0 -33.60841,7.92045 -54.58222,7.92045c-20.57209,0 -70.07875,-7.92045 -70.07875,-7.92045z" fill="url(#color-1)"/><path d="M6.04863,53.9907c-0.78871,-11.27722 1.44002,-30.71764 9.62365,-38.60991c6.36692,-6.14024 16.07779,-10.96171 25.66216,-11.21305c9.58438,-0.25135 32.202,12.595 32.202,12.595c0,0 25.71824,-12.24612 35.98766,-11.74479c20.68539,1.00983 30.58323,12.04094 35.31939,30.3649c4.73617,18.32397 -6.56599,37.85612 -6.56599,37.85612c0,0 10.42079,24.86145 8.9769,39.80682c-1.21463,12.57238 -1.25993,18.12113 -20.2758,25.79944c-5.92442,2.39218 -13.42107,2.46413 -20.92336,2.70108c-5.09224,0.16084 -10.37279,1.14053 -14.44763,0.09985c-9.19112,-2.34735 -13.5944,-8.48727 -13.5944,-8.48727c0,0 -12.64378,7.0321 -25.11991,7.74419c-12.47613,0.71211 -27.33211,2.99615 -34.98185,-4.16596c-6.87658,-6.43825 -10.59392,-10.00204 -12.40054,-25.34025c-2.1705,-18.42762 5.0063,-36.09171 5.0063,-36.09171c0,0 -3.67987,-10.03725 -4.46858,-21.31447z" fill="url(#color-2)"/><path d="M103.80081,37.31667c5.51175,6.63024 -0.61385,14.2959 1.17533,18.67006c1.30607,3.19306 1.05644,7.7176 0.9375,11.15015c-0.1972,5.69117 -1.84203,9.58507 -8.73184,8.29173c-6.03361,-1.13261 -17.13845,-5.89929 -21.57915,-5.89929c-3.38254,0 -7.07378,1.35566 -11.57743,3.70935c-4.40035,2.2997 -14.03785,1.82616 -19.83201,2.42513c-6.06232,0.62669 -8.30869,2.19917 -14.06969,-1.22088c-5.6848,-3.37482 -2.56226,-9.63765 -5.96808,-14.92327c-2.04474,-3.17331 -7.86431,-3.95145 -10.17746,-6.99412c-2.18776,-2.87772 1.44422,-6.04351 0.39959,-9.01179c-1.46193,-4.15405 -7.13184,-7.92128 -7.13184,-9.97082c0,-15.3102 15.04255,-29.4434 35.29766,-29.4434c12.264,0 24.09728,6.90333 32.74007,13.39817c1.52045,1.14258 2.52258,7.82869 7.93024,12.31034c5.94717,4.92878 15.07537,0.8784 20.58711,7.50864z" fill="url(#color-3)"/><path d="M148.09197,111.36996c0,5.2789 -0.75437,11.02891 -3.90308,16.07053c-2.40693,3.85391 -6.49923,7.29389 -11.01669,9.79307c-9.05455,5.00921 -26.53587,4.95727 -39.66246,4.95727c-6.69233,0 -11.36075,-5.37623 -16.14445,-7.64321c-5.1656,-2.44797 -20.68229,7.39853 -25.4697,4.5126c-9.48933,-5.72034 -9.52439,-19.55301 -9.52439,-28.37899c0,-9.46277 7.66561,-25.16469 22.65766,-27.78156c3.06743,-0.53542 6.82186,6.32834 11.33545,7.37526c6.44052,1.49386 14.06998,-2.07679 20.4083,1.99607c7.43507,4.77762 12.48403,13.41691 17.74355,13.41691c4.15989,0 10.6458,-1.33612 13.94344,-3.68057c2.3904,-1.69946 1.55859,-5.52076 2.71306,-7.10129c0.8343,-1.1422 3.69307,-0.29156 4.85005,-0.54489c10.02841,-2.19579 12.06926,5.3704 12.06926,17.00881z" fill="url(#color-4)"/><path d="M97.66666,28.16667c0,-11.41388 9.25278,-20.66667 20.66667,-20.66667c11.41388,0 20.66667,9.25278 20.66667,20.66667c0,11.41388 -9.25278,20.66667 -20.66667,20.66667c-11.41388,0 -20.66667,-9.25278 -20.66667,-20.66667z" fill="url(#color-5)"/></g></g></svg>