<svg version="1.1" xmlns="http://www.w3.org/2000/svg" xmlns:xlink="http://www.w3.org/1999/xlink" width="144.97866" height="142.7364" viewBox="0,0,144.97866,142.7364"><defs><linearGradient x1="344.39736" y1="340.05426" x2="344.39736" y2="480.90051" gradientUnits="userSpaceOnUse" id="color-1"><stop offset="0" stop-color="#ffdd00"/><stop offset="1" stop-color="#b96300"/></linearGradient><radialGradient cx="385.3454" cy="373.58433" r="44.64486" gradientUnits="userSpaceOnUse" id="color-2"><stop offset="0" stop-color="#00ceff"/><stop offset="1" stop-color="#0098b5"/></radialGradient><radialGradient cx="374.5" cy="421.75171" r="27.63699" gradientUnits="userSpaceOnUse" id="color-3"><stop offset="0" stop-color="#00ceff"/><stop offset="1" stop-color="#0098b5"/></radialGradient><radialGradient cx="366.55166" cy="380.91765" r="5.22933" gradientUnits="userSpaceOnUse" id="color-4"><stop offset="0" stop-color="#ffffff"/><stop offset="1" stop-color="#ffffff" stop-opacity="0"/></radialGradient><radialGradient cx="336.01206" cy="374.58433" r="44.64486" gradientUnits="userSpaceOnUse" id="color-5"><stop offset="0" stop-color="#1dff00"/><stop offset="1" stop-color="#49b500"/></radialGradient><radialGradient cx="305.80547" cy="378.91765" r="6.79814" gradientUnits="userSpaceOnUse" id="color-6"><stop offset="0" stop-color="#ffffff"/><stop offset="1" stop-color="#ffffff" stop-opacity="0"/></radialGradient><radialGradient cx="346.48972" cy="378.91765" r="5.22934" gradientUnits="userSpaceOnUse" id="color-7"><stop offset="0" stop-color="#ffffff"/><stop offset="1" stop-color="#ffffff" stop-opacity="0"/></radialGradient><radialGradient cx="307.62152" cy="420.12133" r="18.08604" gradientUnits="userSpaceOnUse" id="color-8"><stop offset="0" stop-color="#1dff00"/><stop offset="1" stop-color="#49b500"/></radialGradient><radialGradient cx="349.69977" cy="416.16015" r="16.93558" gradientUnits="userSpaceOnUse" id="color-9"><stop offset="0" stop-color="#1dff00"/><stop offset="1" stop-color="#49b500"/></radialGradient><radialGradient cx="398.90258" cy="379.91765" r="6.79814" gradientUnits="userSpaceOnUse" id="color-10"><stop offset="0" stop-color="#ffffff"/><stop offset="1" stop-color="#ffffff" stop-opacity="0"/></radialGradient><radialGradient cx="408.16667" cy="421.75171" r="25.87899" gradientUnits="userSpaceOnUse" id="color-11"><stop offset="0" stop-color="#00ceff"/><stop offset="1" stop-color="#0098b5"/></radialGradient></defs><g transform="translate(-271.90803,-338.1641)"><g data-paper-data="{&quot;isPaintingLayer&quot;:true}" fill-rule="nonzero" stroke="none" stroke-width="0" stroke-linecap="butt" stroke-linejoin="miter" stroke-miterlimit="10" stroke-dasharray="" stroke-dashoffset="0" style="mix-blend-mode: normal"><path d="M284.30526,472.98005c0,0 -12.39723,-55.15386 -12.39723,-75.68241c0,-21.01377 12.39723,-48.97856 12.39723,-48.97856c0,0 33.40942,-8.26481 53.54913,-8.26481c21.34398,0 71.11185,8.26481 71.11185,8.26481c0,0 7.92045,57.05861 7.92045,77.90542c0,20.70589 -7.92045,46.75556 -7.92045,46.75556c0,0 -33.60841,7.92045 -54.58222,7.92045c-20.57209,0 -70.07875,-7.92045 -70.07875,-7.92045z" fill="url(#color-1)"/><path d="M325.02935,387.99071c-0.49493,-11.27722 0.90364,-30.71764 6.03904,-38.60991c3.99538,-6.14024 10.08914,-10.96171 16.10353,-11.21305c6.01439,-0.25135 20.20742,12.595 20.20742,12.595c0,0 16.13872,-12.24612 22.58299,-11.74479c12.9805,1.00983 19.1916,12.04094 22.16364,30.3649c2.97204,18.32397 -4.12029,37.85612 -4.12029,37.85612c0,0 6.53926,24.86145 5.63319,39.80682c-0.7622,12.57238 -0.79063,18.12113 -12.72348,25.79944c-3.71769,2.39218 -8.422,2.46413 -13.12984,2.70108c-3.19549,0.16084 -6.50914,1.14053 -9.06619,0.09985c-5.76761,-2.34735 -8.53076,-8.48727 -8.53076,-8.48727c0,0 -7.93423,7.0321 -15.76326,7.74419c-7.82903,0.71211 -17.15146,2.99615 -21.95183,-4.16596c-4.3152,-6.43825 -6.6479,-10.00204 -7.78159,-25.34025c-1.36203,-18.42762 3.14156,-36.09171 3.14156,-36.09171c0,0 -2.3092,-10.03725 -2.80413,-21.31447z" fill="url(#color-2)"/><path d="M390.30556,433.91838c0,6.35127 -1.77842,11.5 -3.97222,11.5c-2.1938,0 -3.97222,-5.14873 -3.97222,-11.5c0,-6.35127 1.77842,-11.5 3.97222,-11.5c2.1938,0 3.97222,5.14873 3.97222,11.5z" fill="#000000"/><path d="M369.39753,365.58433c7.78566,0 14.09719,14.69998 14.09719,32.83333c0,7.68629 -1.134,14.75571 -3.03359,20.35021c-2.86962,-5.02756 -7.00781,-8.18355 -11.60855,-8.18355c-4.23343,0 -8.0752,2.67217 -10.89738,7.01581c-1.67061,-5.39619 -2.65487,-12.02162 -2.65487,-19.18247c0,-18.13335 6.31153,-32.83333 14.0972,-32.83333z" data-paper-data="{&quot;index&quot;:null}" fill="#000000"/><path d="M383.69385,436.88797c0,15.26349 -7.20196,27.63699 -16.08604,27.63699c-8.88408,0 -16.08604,-12.3735 -16.08604,-27.63699c0,-15.26349 7.20196,-27.63699 16.08604,-27.63699c8.88408,0 16.08604,12.3735 16.08604,27.63699z" fill="url(#color-3)"/><path d="M366.55166,373.25099c2.88808,0 5.22934,3.43247 5.22934,7.66666c0,4.23419 -2.34126,7.66667 -5.22934,7.66667c-2.88808,0 -5.22933,-3.43248 -5.22933,-7.66667c0,-4.23418 2.34125,-7.66666 5.22933,-7.66666z" data-paper-data="{&quot;index&quot;:null}" fill="url(#color-4)"/><path d="M275.69602,388.99071c-0.49493,-11.27722 0.90364,-30.71764 6.03904,-38.60991c3.99537,-6.14024 10.08914,-10.96171 16.10353,-11.21305c6.0144,-0.25135 20.20742,12.595 20.20742,12.595c0,0 16.13872,-12.24612 22.58299,-11.74479c12.98051,1.00983 19.1916,12.04094 22.16364,30.3649c2.97204,18.32397 -4.12029,37.85612 -4.12029,37.85612c0,0 6.53926,24.86145 5.63319,39.80682c-0.76221,12.57238 -0.79063,18.12113 -12.72348,25.79944c-3.7177,2.39218 -8.422,2.46413 -13.12984,2.70108c-3.19549,0.16084 -6.50914,1.14053 -9.06618,0.09985c-5.76762,-2.34735 -8.53076,-8.48727 -8.53076,-8.48727c0,0 -7.93423,7.0321 -15.76326,7.74419c-7.82903,0.71211 -17.15146,2.99615 -21.95183,-4.16596c-4.3152,-6.43825 -6.6479,-10.00204 -7.78159,-25.34025c-1.36203,-18.42762 3.14156,-36.09171 3.14156,-36.09171c0,0 -2.30919,-10.03725 -2.80413,-21.31447z" fill="url(#color-5)"/><path d="M329.33749,425.75098c0,1.7489 -3.27134,16.5 -7.43018,16.5c-4.15884,0 -7.63032,-14.7511 -7.63032,-16.5c0,-1.7489 3.57155,10.83333 7.73039,10.83333c4.15884,0 7.3301,-12.58224 7.3301,-10.83333z" fill="#000000"/><path d="M316.36873,393.25099c0,9.40391 -1.6331,17.88909 -4.25347,23.90001c-2.79159,-4.07797 -6.51235,-6.56668 -10.59786,-6.56668c-3.38456,0 -6.51879,1.70799 -9.0818,4.61259c-2.15756,-5.83181 -3.46861,-13.52009 -3.46861,-21.94592c0,-18.2254 6.13409,-33 13.70086,-33c7.56678,0 13.70086,14.7746 13.70086,33z" fill="#000000"/><path d="M357.74105,396.41766c0,7.16085 -0.98425,13.78628 -2.65486,19.18247c-2.82217,-4.34364 -6.66395,-7.01581 -10.89738,-7.01581c-4.60074,0 -8.73893,3.15599 -11.60855,8.18355c-1.89959,-5.5945 -3.03359,-12.66392 -3.03359,-20.35021c0,-18.13335 6.31153,-32.83333 14.09719,-32.83333c7.78567,0 14.09719,14.69998 14.09719,32.83333z" fill="#000000"/><path d="M312.60361,378.91765c0,5.33875 -3.04363,9.66667 -6.79814,9.66667c-3.75451,0 -6.79814,-4.32792 -6.79814,-9.66667c0,-5.33875 3.04363,-9.66666 6.79814,-9.66666c3.75451,0 6.79814,4.32791 6.79814,9.66666z" fill="url(#color-6)"/><path d="M351.71906,378.91765c0,4.23419 -2.34125,7.66667 -5.22934,7.66667c-2.88808,0 -5.22934,-3.43248 -5.22934,-7.66667c0,-4.23419 2.34125,-7.66666 5.22934,-7.66666c2.88808,0 5.22934,3.43248 5.22934,7.66666z" fill="url(#color-7)"/><path d="M318.02718,437.88797c0,15.26349 -8.09739,27.63699 -18.08604,27.63699c-9.98865,0 -18.08604,-12.3735 -18.08604,-27.63699c0,-15.26349 8.09739,-27.63699 18.08604,-27.63699c9.98865,0 18.08604,12.3735 18.08604,27.63699z" fill="url(#color-8)"/><path d="M359.44354,432.79664c0,14.29258 -7.58232,25.879 -16.93559,25.879c-9.35326,0 -16.93559,-11.58642 -16.93559,-25.879c0,-14.29258 7.58232,-25.87899 16.93559,-25.87899c9.35326,0 16.93559,11.58642 16.93559,25.87899z" fill="url(#color-9)"/><path d="M388.33933,394.25099c0,-18.2254 6.13408,-33 13.70086,-33c7.56678,0 13.70087,14.7746 13.70087,33c0,8.42583 -1.31106,16.11411 -3.46861,21.94592c-2.563,-2.9046 -5.69723,-4.61259 -9.08179,-4.61259c-4.08551,0 -7.80627,2.48871 -10.59786,6.56668c-2.62037,-6.01092 -4.25347,-14.4961 -4.25347,-23.90001z" data-paper-data="{&quot;index&quot;:null}" fill="#000000"/><path d="M398.90258,370.25099c3.7545,0 6.79814,4.32791 6.79814,9.66666c0,5.33875 -3.04363,9.66667 -6.79814,9.66667c-3.7545,0 -6.79814,-4.32792 -6.79814,-9.66667c0,-5.33875 3.04363,-9.66666 6.79814,-9.66666z" data-paper-data="{&quot;index&quot;:null}" fill="url(#color-10)"/><path d="M416.1102,435.12997c0,14.29258 -6.01531,25.879 -13.43559,25.879c-7.42026,0 -13.43559,-11.58642 -13.43559,-25.879c0,-14.29258 6.01531,-25.87899 13.43559,-25.87899c7.42026,0 13.43559,11.58642 13.43559,25.87899z" fill="url(#color-11)"/></g></g></svg>