<svg version="1.1" xmlns="http://www.w3.org/2000/svg" xmlns:xlink="http://www.w3.org/1999/xlink" width="145.48367" height="141.7364" viewBox="0,0,145.48367,141.7364"><defs><linearGradient x1="344.39736" y1="340.05425" x2="344.39736" y2="480.9005" gradientUnits="userSpaceOnUse" id="color-1"><stop offset="0" stop-color="#ffdd00"/><stop offset="1" stop-color="#b96300"/></linearGradient><radialGradient cx="372.16667" cy="374.58432" r="71.14486" gradientUnits="userSpaceOnUse" id="color-2"><stop offset="0" stop-color="#ff0000"/><stop offset="1" stop-color="#b50000"/></radialGradient><radialGradient cx="315" cy="379.25098" r="10.83333" gradientUnits="userSpaceOnUse" id="color-3"><stop offset="0" stop-color="#ffffff"/><stop offset="1" stop-color="#ffffff" stop-opacity="0"/></radialGradient><radialGradient cx="379.83334" cy="379.25098" r="8.33333" gradientUnits="userSpaceOnUse" id="color-4"><stop offset="0" stop-color="#ffffff"/><stop offset="1" stop-color="#ffffff" stop-opacity="0"/></radialGradient><radialGradient cx="317.894" cy="420.45466" r="28.82143" gradientUnits="userSpaceOnUse" id="color-5"><stop offset="0" stop-color="#ff0000"/><stop offset="1" stop-color="#b50000"/></radialGradient><radialGradient cx="384.94879" cy="416.49348" r="26.98809" gradientUnits="userSpaceOnUse" id="color-6"><stop offset="0" stop-color="#ff0000"/><stop offset="1" stop-color="#b50000"/></radialGradient></defs><g transform="translate(-271.90803,-339.16409)"><g data-paper-data="{&quot;isPaintingLayer&quot;:true}" fill-rule="nonzero" stroke="none" stroke-width="0" stroke-linecap="butt" stroke-linejoin="miter" stroke-miterlimit="10" stroke-dasharray="" stroke-dashoffset="0" style="mix-blend-mode: normal"><path d="M284.30526,472.98004c0,0 -12.39723,-55.15386 -12.39723,-75.68241c0,-21.01377 12.39723,-48.97856 12.39723,-48.97856c0,0 33.40942,-8.26481 53.54913,-8.26481c21.34398,0 71.11185,8.26481 71.11185,8.26481c0,0 7.92045,57.05861 7.92045,77.90542c0,20.70589 -7.92045,46.75556 -7.92045,46.75556c0,0 -33.60841,7.92045 -54.58222,7.92045c-20.57209,0 -70.07875,-7.92045 -70.07875,-7.92045z" fill="url(#color-1)"/><path d="M276.04863,388.9907c-0.78871,-11.27722 1.44002,-30.71764 9.62365,-38.60991c6.36692,-6.14024 16.07779,-10.96171 25.66216,-11.21305c9.58438,-0.25135 32.202,12.595 32.202,12.595c0,0 25.71824,-12.24612 35.98766,-11.74479c20.68539,1.00983 30.58323,12.04094 35.31939,30.3649c4.73617,18.32397 -6.56599,37.85612 -6.56599,37.85612c0,0 10.42079,24.86145 8.9769,39.80682c-1.21463,12.57238 -1.25993,18.12113 -20.2758,25.79944c-5.92442,2.39218 -13.42107,2.46413 -20.92336,2.70108c-5.09224,0.16084 -10.37279,1.14053 -14.44763,0.09985c-9.19112,-2.34735 -13.5944,-8.48727 -13.5944,-8.48727c0,0 -12.64378,7.0321 -25.11991,7.74419c-12.47613,0.71211 -27.33211,2.99615 -34.98185,-4.16596c-6.87658,-6.43825 -10.59392,-10.00204 -12.40054,-25.34025c-2.1705,-18.42762 5.0063,-36.09171 5.0063,-36.09171c0,0 -3.67987,-10.03725 -4.46858,-21.31447z" fill="url(#color-2)"/><path d="M352.5,426.08431c0,1.7489 -5.21312,16.5 -11.84053,16.5c-6.62742,0 -12.15947,-14.7511 -12.15947,-16.5c0,-1.7489 5.69152,10.83333 12.31894,10.83333c6.62742,0 11.68106,-12.58224 11.68106,-10.83333z" fill="#000000"/><path d="M331.83333,393.58432c0,9.40391 -2.60246,17.88909 -6.77821,23.90001c-4.4486,-4.07797 -10.3779,-6.56668 -16.88846,-6.56668c-5.39355,0 -10.38817,1.70799 -14.47251,4.61259c-3.43823,-5.83181 -5.52749,-13.52009 -5.52749,-21.94592c0,-18.2254 9.77512,-33 21.83333,-33c12.05822,0 21.83333,14.7746 21.83333,33z" fill="#000000"/><path d="M397.76316,396.75099c0,7.16085 -1.56848,13.78628 -4.23072,19.18247c-4.49734,-4.34364 -10.6195,-7.01581 -17.36577,-7.01581c-7.33162,0 -13.92613,3.15599 -18.49908,8.18355c-3.02714,-5.5945 -4.83425,-12.66392 -4.83425,-20.35021c0,-18.13335 10.05788,-32.83333 22.46491,-32.83333c12.40703,0 22.46491,14.69998 22.46491,32.83333z" fill="#000000"/><path d="M325.83333,379.25098c0,5.33875 -4.85025,9.66667 -10.83333,9.66667c-5.98309,0 -10.83333,-4.32792 -10.83333,-9.66667c0,-5.33875 4.85025,-9.66666 10.83333,-9.66666c5.98309,0 10.83333,4.32791 10.83333,9.66666z" fill="url(#color-3)"/><path d="M388.16667,379.25098c0,4.23419 -3.73096,7.66667 -8.33333,7.66667c-4.60237,0 -8.33333,-3.43248 -8.33333,-7.66667c0,-4.23419 3.73096,-7.66666 8.33333,-7.66666c4.60237,0 8.33333,3.43248 8.33333,7.66666z" fill="url(#color-4)"/><path d="M334.47619,438.2213c0,15.26349 -12.90379,27.63699 -28.82143,27.63699c-15.91764,0 -28.82143,-12.3735 -28.82143,-27.63699c0,-15.26349 12.90379,-27.63699 28.82143,-27.63699c15.91764,0 28.82143,12.3735 28.82143,27.63699z" fill="url(#color-5)"/><path d="M400.47619,433.12997c0,14.29258 -12.08298,25.879 -26.9881,25.879c-14.90511,0 -26.9881,-11.58642 -26.9881,-25.879c0,-14.29258 12.08298,-25.87899 26.9881,-25.87899c14.90511,0 26.9881,11.58642 26.9881,25.87899z" fill="url(#color-6)"/></g></g></svg>